<?xml version="1.0" encoding="utf-8"?>
<!-- Generator: Adobe Illustrator 23.0.3, SVG Export Plug-In . SVG Version: 6.00 Build 0)  -->
<svg version="1.1" id="Ebene_1" xmlns="http://www.w3.org/2000/svg" xmlns:xlink="http://www.w3.org/1999/xlink" x="0px" y="0px"
	 viewBox="0 0 476.2 137.7" style="enable-background:new 0 0 476.2 137.7;" xml:space="preserve">
<style type="text/css">
	.st0{fill:url(#SVGID_1_);}
	.st1{fill:url(#SVGID_2_);}
	.st2{fill:url(#SVGID_3_);}
	.st3{fill:url(#SVGID_4_);}
	.st4{fill:url(#SVGID_5_);}
	.st5{fill:url(#SVGID_6_);}
	.st6{fill:#FFFFFF;}
</style>
<g>
	
		<linearGradient id="SVGID_1_" gradientUnits="userSpaceOnUse" x1="-162.8333" y1="259.2623" x2="-162.8333" y2="171.6931" gradientTransform="matrix(1 0 0 1 213.7111 -156.7648)">
		<stop  offset="4.313100e-07" style="stop-color:#AECC53"/>
		<stop  offset="1" style="stop-color:#6FC6D0"/>
	</linearGradient>
	<path class="st0" d="M56.8,20.9c0-3.3-2.7-5.9-5.9-5.9c-3.3,0-5.9,2.7-5.9,5.9v81.6l11.9-10.9V20.9z"/>
	
		<linearGradient id="SVGID_2_" gradientUnits="userSpaceOnUse" x1="-182.202" y1="277.059" x2="-182.202" y2="187.2134" gradientTransform="matrix(1 0 0 1 213.7111 -156.7648)">
		<stop  offset="4.313100e-07" style="stop-color:#AECC53"/>
		<stop  offset="1" style="stop-color:#6FC6D0"/>
	</linearGradient>
	<path class="st1" d="M37.4,36.4c0-3.3-2.7-5.9-5.9-5.9c-3.3,0-5.9,2.7-5.9,5.9v83.9l11.9-10.9V36.4z"/>
	
		<linearGradient id="SVGID_3_" gradientUnits="userSpaceOnUse" x1="-143.4647" y1="241.4656" x2="-143.4647" y2="164.7952" gradientTransform="matrix(1 0 0 1 213.7111 -156.7648)">
		<stop  offset="4.313100e-07" style="stop-color:#AECC53"/>
		<stop  offset="1" style="stop-color:#6FC6D0"/>
	</linearGradient>
	<path class="st2" d="M76.2,73.8V14c0-3.3-2.7-5.9-5.9-5.9c-3.3,0-5.9,2.7-5.9,5.9v70.7l11-10.1L76.2,73.8z"/>
	
		<linearGradient id="SVGID_4_" gradientUnits="userSpaceOnUse" x1="-124.0961" y1="241.4657" x2="-124.0961" y2="164.7952" gradientTransform="matrix(1 0 0 1 213.7111 -156.7648)">
		<stop  offset="4.313100e-07" style="stop-color:#AECC53"/>
		<stop  offset="1" style="stop-color:#6FC6D0"/>
	</linearGradient>
	<path class="st3" d="M95.5,84.7V14c0-3.3-2.7-5.9-5.9-5.9h0c-3.3,0-5.9,2.7-5.9,5.9v59.8l0.9,0.8L95.5,84.7z"/>
	
		<linearGradient id="SVGID_5_" gradientUnits="userSpaceOnUse" x1="-104.7274" y1="259.2623" x2="-104.7274" y2="171.6931" gradientTransform="matrix(1 0 0 1 213.7111 -156.7648)">
		<stop  offset="4.313100e-07" style="stop-color:#AECC53"/>
		<stop  offset="1" style="stop-color:#6FC6D0"/>
	</linearGradient>
	<path class="st4" d="M114.9,20.9c0-3.3-2.7-5.9-5.9-5.9c-3.3,0-5.9,2.7-5.9,5.9v70.7l11.9,10.9V20.9z"/>
	
		<linearGradient id="SVGID_6_" gradientUnits="userSpaceOnUse" x1="-85.3588" y1="277.059" x2="-85.3588" y2="187.2134" gradientTransform="matrix(1 0 0 1 213.7111 -156.7648)">
		<stop  offset="4.313100e-07" style="stop-color:#AECC53"/>
		<stop  offset="1" style="stop-color:#6FC6D0"/>
	</linearGradient>
	<path class="st5" d="M134.3,36.4c0-3.3-2.7-5.9-5.9-5.9c-3.3,0-5.9,2.7-5.9,5.9v73l11.9,10.9V36.4z"/>
	<polygon class="st6" points="122.4,118.8 114.9,111.9 103.1,101 95.5,94.1 83.7,83.2 79.9,79.7 76.2,83.2 64.3,94.1 56.8,101 
		44.9,111.9 37.4,118.8 25.6,129.7 79.9,109 134.3,129.7 	"/>
	<g>
		<path class="st6" d="M196.9,30.4v34.1h-6.5l-17-20.7v20.7h-7.8V30.4h6.5l16.9,20.7V30.4H196.9z"/>
		<path class="st6" d="M211.9,62.8c-2.8-1.5-5.1-3.6-6.7-6.3c-1.6-2.7-2.4-5.7-2.4-9c0-3.3,0.8-6.4,2.4-9c1.6-2.7,3.8-4.8,6.7-6.3
			c2.8-1.5,6-2.3,9.6-2.3s6.7,0.8,9.5,2.3c2.8,1.5,5,3.6,6.7,6.3c1.6,2.7,2.4,5.7,2.4,9c0,3.3-0.8,6.4-2.4,9
			c-1.6,2.7-3.8,4.8-6.7,6.3c-2.8,1.5-6,2.3-9.5,2.3S214.7,64.3,211.9,62.8z M226.9,56.9c1.6-0.9,2.9-2.2,3.8-3.9
			c0.9-1.7,1.4-3.5,1.4-5.7c0-2.1-0.5-4-1.4-5.7c-0.9-1.7-2.2-2.9-3.8-3.9c-1.6-0.9-3.4-1.4-5.5-1.4s-3.8,0.5-5.5,1.4
			c-1.6,0.9-2.9,2.2-3.8,3.9c-0.9,1.7-1.4,3.5-1.4,5.7c0,2.1,0.5,4,1.4,5.7c0.9,1.7,2.2,2.9,3.8,3.9c1.6,0.9,3.4,1.4,5.5,1.4
			S225.3,57.9,226.9,56.9z"/>
		<path class="st6" d="M267.8,64.5l-6.6-9.5h-0.4H254v9.5h-7.9V30.4h14.8c3,0,5.6,0.5,7.9,1.5c2.2,1,3.9,2.4,5.1,4.3
			c1.2,1.9,1.8,4,1.8,6.6c0,2.5-0.6,4.7-1.8,6.6c-1.2,1.8-2.9,3.2-5.2,4.2l7.6,11H267.8z M265.8,38.3c-1.2-1-3-1.5-5.4-1.5H254v11.9
			h6.4c2.4,0,4.2-0.5,5.4-1.6c1.2-1,1.9-2.5,1.9-4.4C267.6,40.8,267,39.4,265.8,38.3z"/>
		<path class="st6" d="M288.4,36.8h-10.9v-6.4h29.7v6.4h-10.9v27.7h-7.9V36.8z"/>
		<path class="st6" d="M342.7,30.4v34.1h-7.9v-14h-15.5v14h-7.9V30.4h7.9v13.4h15.5V30.4H342.7z"/>
		<path class="st6" d="M377.2,58.1v6.3h-26.4V30.4h25.8v6.3h-17.9v7.4h15.8v6.1h-15.8v7.9H377.2z"/>
		<path class="st6" d="M405.2,64.5l-6.6-9.5h-0.4h-6.9v9.5h-7.9V30.4h14.8c3,0,5.6,0.5,7.9,1.5c2.2,1,3.9,2.4,5.1,4.3
			c1.2,1.9,1.8,4,1.8,6.6c0,2.5-0.6,4.7-1.8,6.6c-1.2,1.8-2.9,3.2-5.2,4.2l7.6,11H405.2z M403.2,38.3c-1.2-1-3-1.5-5.4-1.5h-6.4
			v11.9h6.4c2.4,0,4.2-0.5,5.4-1.6c1.2-1,1.9-2.5,1.9-4.4C405.1,40.8,404.5,39.4,403.2,38.3z"/>
		<path class="st6" d="M450.6,30.4v34.1h-6.5l-17-20.7v20.7h-7.8V30.4h6.5l16.9,20.7V30.4H450.6z"/>
	</g>
	<g>
		<path class="st6" d="M195.2,105.4c1.1,1.4,1.7,3.2,1.7,5.3c0,3-1.2,5.3-3.5,6.9c-2.3,1.6-5.7,2.4-10.2,2.4h-17.6V85.9h16.7
			c4.2,0,7.3,0.8,9.6,2.4c2.2,1.6,3.3,3.8,3.3,6.5c0,1.7-0.4,3.1-1.2,4.4c-0.8,1.3-1.9,2.3-3.3,3.1
			C192.6,102.9,194.1,103.9,195.2,105.4z M173.4,91.8v8h7.8c1.9,0,3.4-0.3,4.4-1c1-0.7,1.5-1.7,1.5-3c0-1.3-0.5-2.3-1.5-3
			c-1-0.7-2.5-1-4.4-1H173.4z M187.3,113c1.1-0.7,1.6-1.7,1.6-3.2c0-2.8-2.1-4.2-6.3-4.2h-9.2v8.4h9.2
			C184.7,114,186.3,113.7,187.3,113z"/>
		<path class="st6" d="M202.9,85.9h7.9V120h-7.9V85.9z"/>
		<path class="st6" d="M225.9,92.3H215v-6.4h29.7v6.4h-10.9V120h-7.9V92.3z"/>
		<path class="st6" d="M255.3,118.3c-2.8-1.5-5-3.6-6.6-6.3c-1.6-2.7-2.4-5.7-2.4-9.1c0-3.4,0.8-6.4,2.4-9.1
			c1.6-2.7,3.8-4.8,6.6-6.3c2.8-1.5,6-2.3,9.5-2.3c3,0,5.6,0.5,8,1.6c2.4,1,4.4,2.5,6,4.5l-5.1,4.7c-2.3-2.7-5.2-4-8.6-4
			c-2.1,0-4,0.5-5.6,1.4c-1.7,0.9-2.9,2.2-3.9,3.9c-0.9,1.7-1.4,3.5-1.4,5.7c0,2.1,0.5,4,1.4,5.7c0.9,1.7,2.2,2.9,3.9,3.9
			c1.7,0.9,3.5,1.4,5.6,1.4c3.4,0,6.3-1.3,8.6-4l5.1,4.7c-1.6,2-3.6,3.5-6,4.5c-2.4,1-5.1,1.6-8,1.6
			C261.3,120.6,258.1,119.8,255.3,118.3z"/>
		<path class="st6" d="M290.4,118.3c-2.8-1.5-5.1-3.6-6.7-6.3c-1.6-2.7-2.4-5.7-2.4-9c0-3.3,0.8-6.4,2.4-9c1.6-2.7,3.8-4.8,6.7-6.3
			s6-2.3,9.6-2.3s6.7,0.8,9.5,2.3c2.8,1.5,5,3.6,6.7,6.3c1.6,2.7,2.4,5.7,2.4,9c0,3.3-0.8,6.4-2.4,9c-1.6,2.7-3.8,4.8-6.7,6.3
			c-2.8,1.5-6,2.3-9.5,2.3S293.2,119.8,290.4,118.3z M305.4,112.5c1.6-0.9,2.9-2.2,3.8-3.9c0.9-1.7,1.4-3.5,1.4-5.7
			c0-2.1-0.5-4-1.4-5.7c-0.9-1.7-2.2-2.9-3.8-3.9c-1.6-0.9-3.4-1.4-5.5-1.4s-3.8,0.5-5.5,1.4c-1.6,0.9-2.9,2.2-3.8,3.9
			c-0.9,1.7-1.4,3.5-1.4,5.7c0,2.1,0.5,4,1.4,5.7c0.9,1.7,2.2,2.9,3.8,3.9c1.6,0.9,3.4,1.4,5.5,1.4S303.8,113.4,305.4,112.5z"/>
		<path class="st6" d="M324.5,85.9h7.9V120h-7.9V85.9z"/>
		<path class="st6" d="M371.8,85.9V120h-6.5l-17-20.7V120h-7.8V85.9h6.5l16.9,20.7V85.9H371.8z"/>
	</g>
</g>
</svg>
