<?xml version="1.0" encoding="utf-8"?>
<!-- Generator: Adobe Illustrator 22.1.0, SVG Export Plug-In . SVG Version: 6.00 Build 0)  -->
<svg version="1.1" id="Ebene_1" xmlns="http://www.w3.org/2000/svg" xmlns:xlink="http://www.w3.org/1999/xlink" x="0px" y="0px"
	 width="310px" height="90px" viewBox="0 0 310 90" style="enable-background:new 0 0 310 90;" xml:space="preserve">
<style type="text/css">
	.st0{fill:#FFFFFF;}
</style>
<g>
	<g>
		<g>
			<path class="st0" d="M24.3,11c0-2.3-1.9-4.2-4.2-4.2s-4.2,1.9-4.2,4.2v58.4l8.5-7.8V11z"/>
			<path class="st0" d="M10.4,22.1c0-2.3-1.9-4.2-4.2-4.2c-2.3,0-4.2,1.9-4.2,4.2v60l8.5-7.8V22.1z"/>
			<path class="st0" d="M38.2,48.9V6.1c0-2.3-1.9-4.2-4.2-4.2c-2.3,0-4.2,1.9-4.2,4.2v50.6l7.8-7.2L38.2,48.9z"/>
			<path class="st0" d="M52,56.7V6.1c0-2.3-1.9-4.2-4.2-4.2h0c-2.3,0-4.2,1.9-4.2,4.2v42.8l0.7,0.6L52,56.7z"/>
			<path class="st0" d="M65.9,11c0-2.3-1.9-4.2-4.2-4.2c-2.3,0-4.2,1.9-4.2,4.2v50.6l8.5,7.8V11z"/>
			<path class="st0" d="M79.7,22.1c0-2.3-1.9-4.2-4.2-4.2c-2.3,0-4.2,1.9-4.2,4.2v52.2l8.5,7.8V22.1z"/>
			<polygon class="st0" points="71.2,81.1 65.9,76.1 57.4,68.3 52,63.4 43.5,55.6 40.8,53.1 38.2,55.6 29.7,63.4 24.3,68.3 
				15.8,76.1 10.4,81.1 2,88.9 40.8,74.1 79.7,88.9 			"/>
		</g>
	</g>
	<g>
		<path class="st0" d="M124.5,17.8v24.4h-4.6l-12.2-14.8v14.8h-5.6V17.8h4.7l12.1,14.8V17.8H124.5z"/>
		<path class="st0" d="M135.2,41c-2-1.1-3.6-2.6-4.8-4.5c-1.1-1.9-1.7-4.1-1.7-6.5c0-2.4,0.6-4.5,1.7-6.5c1.2-1.9,2.7-3.4,4.8-4.5
			c2-1.1,4.3-1.6,6.8-1.6c2.5,0,4.8,0.5,6.8,1.6s3.6,2.6,4.8,4.5c1.2,1.9,1.7,4.1,1.7,6.5c0,2.4-0.6,4.5-1.7,6.5
			c-1.2,1.9-2.8,3.4-4.8,4.5s-4.3,1.6-6.8,1.6C139.6,42.7,137.3,42.1,135.2,41z M146,36.8c1.2-0.7,2.1-1.6,2.7-2.8
			c0.7-1.2,1-2.5,1-4c0-1.5-0.3-2.9-1-4c-0.7-1.2-1.6-2.1-2.7-2.8c-1.2-0.7-2.5-1-3.9-1c-1.4,0-2.7,0.3-3.9,1
			c-1.2,0.7-2.1,1.6-2.7,2.8c-0.7,1.2-1,2.5-1,4c0,1.5,0.3,2.9,1,4c0.7,1.2,1.6,2.1,2.7,2.8c1.2,0.7,2.5,1,3.9,1
			C143.5,37.8,144.8,37.5,146,36.8z"/>
		<path class="st0" d="M175.2,42.2l-4.7-6.8h-0.3h-4.9v6.8h-5.6V17.8h10.6c2.2,0,4,0.4,5.6,1.1c1.6,0.7,2.8,1.7,3.7,3.1
			c0.9,1.3,1.3,2.9,1.3,4.7c0,1.8-0.4,3.4-1.3,4.7c-0.9,1.3-2.1,2.3-3.7,3l5.5,7.8H175.2z M173.8,23.5c-0.9-0.7-2.2-1.1-3.9-1.1
			h-4.6v8.5h4.6c1.7,0,3-0.4,3.9-1.1c0.9-0.7,1.3-1.8,1.3-3.1C175.1,25.3,174.7,24.3,173.8,23.5z"/>
		<path class="st0" d="M190,22.4h-7.8v-4.6h21.3v4.6h-7.8v19.8H190V22.4z"/>
		<path class="st0" d="M228.9,17.8v24.4h-5.6v-10h-11.1v10h-5.6V17.8h5.6v9.6h11.1v-9.6H228.9z"/>
		<path class="st0" d="M253.5,37.7v4.5h-18.9V17.8h18.4v4.5h-12.8v5.3h11.3v4.4h-11.3v5.6H253.5z"/>
		<path class="st0" d="M273.6,42.2l-4.7-6.8h-0.3h-4.9v6.8H258V17.8h10.6c2.2,0,4,0.4,5.6,1.1c1.6,0.7,2.8,1.7,3.7,3.1
			c0.9,1.3,1.3,2.9,1.3,4.7c0,1.8-0.4,3.4-1.3,4.7c-0.9,1.3-2.1,2.3-3.7,3l5.5,7.8H273.6z M272.1,23.5c-0.9-0.7-2.2-1.1-3.9-1.1
			h-4.6v8.5h4.6c1.7,0,3-0.4,3.9-1.1c0.9-0.7,1.3-1.8,1.3-3.1C273.5,25.3,273,24.3,272.1,23.5z"/>
		<path class="st0" d="M306,17.8v24.4h-4.6l-12.2-14.8v14.8h-5.6V17.8h4.7l12.1,14.8V17.8H306z"/>
	</g>
	<g>
		<path class="st0" d="M123.3,71.5c0.8,1,1.2,2.3,1.2,3.8c0,2.1-0.8,3.8-2.5,4.9c-1.7,1.1-4.1,1.7-7.3,1.7h-12.6V57.6H114
			c3,0,5.3,0.6,6.8,1.7c1.6,1.1,2.4,2.7,2.4,4.6c0,1.2-0.3,2.2-0.9,3.2c-0.6,0.9-1.4,1.7-2.4,2.2C121.4,69.7,122.5,70.5,123.3,71.5z
			 M107.7,61.8v5.7h5.6c1.4,0,2.5-0.2,3.2-0.7c0.7-0.5,1.1-1.2,1.1-2.2c0-1-0.4-1.7-1.1-2.1c-0.7-0.5-1.8-0.7-3.2-0.7H107.7z
			 M117.7,77c0.8-0.5,1.1-1.2,1.1-2.3c0-2-1.5-3-4.5-3h-6.6v6h6.6C115.8,77.7,116.9,77.5,117.7,77z"/>
		<path class="st0" d="M128.8,57.6h5.6V82h-5.6V57.6z"/>
		<path class="st0" d="M145.3,62.2h-7.8v-4.6h21.3v4.6h-7.8V82h-5.6V62.2z"/>
		<path class="st0" d="M166.3,80.8c-2-1.1-3.6-2.6-4.7-4.5c-1.1-1.9-1.7-4.1-1.7-6.5c0-2.4,0.6-4.6,1.7-6.5c1.2-1.9,2.7-3.4,4.7-4.5
			c2-1.1,4.3-1.6,6.8-1.6c2.1,0,4,0.4,5.7,1.1c1.7,0.7,3.1,1.8,4.3,3.2l-3.6,3.3c-1.6-1.9-3.7-2.9-6.1-2.9c-1.5,0-2.9,0.3-4,1
			c-1.2,0.7-2.1,1.6-2.8,2.8c-0.7,1.2-1,2.5-1,4c0,1.5,0.3,2.9,1,4c0.7,1.2,1.6,2.1,2.8,2.8c1.2,0.7,2.5,1,4,1c2.4,0,4.5-1,6.1-2.9
			l3.6,3.3c-1.2,1.4-2.6,2.5-4.3,3.2c-1.7,0.7-3.6,1.1-5.7,1.1C170.6,82.4,168.3,81.8,166.3,80.8z"/>
		<path class="st0" d="M191.4,80.7c-2-1.1-3.6-2.6-4.8-4.5c-1.1-1.9-1.7-4.1-1.7-6.5c0-2.4,0.6-4.5,1.7-6.5c1.2-1.9,2.7-3.4,4.8-4.5
			c2-1.1,4.3-1.6,6.8-1.6c2.5,0,4.8,0.5,6.8,1.6c2,1.1,3.6,2.6,4.8,4.5c1.2,1.9,1.7,4.1,1.7,6.5c0,2.4-0.6,4.5-1.7,6.5
			c-1.2,1.9-2.8,3.4-4.8,4.5s-4.3,1.6-6.8,1.6C195.7,82.4,193.4,81.8,191.4,80.7z M202.1,76.6c1.2-0.7,2.1-1.6,2.7-2.8
			c0.7-1.2,1-2.5,1-4c0-1.5-0.3-2.9-1-4c-0.7-1.2-1.6-2.1-2.7-2.8c-1.2-0.7-2.5-1-3.9-1s-2.7,0.3-3.9,1c-1.2,0.7-2.1,1.6-2.7,2.8
			c-0.7,1.2-1,2.5-1,4c0,1.5,0.3,2.9,1,4c0.7,1.2,1.6,2.1,2.7,2.8c1.2,0.7,2.5,1,3.9,1S201,77.2,202.1,76.6z"/>
		<path class="st0" d="M215.8,57.6h5.6V82h-5.6V57.6z"/>
		<path class="st0" d="M249.6,57.6V82H245l-12.2-14.8V82h-5.6V57.6h4.7L244,72.4V57.6H249.6z"/>
	</g>
</g>
</svg>
